<?xml version="1.0" encoding="iso-8859-1"?>
<!-- Uploaded to: SVG Repo, www.svgrepo.com, Generator: SVG Repo Mixer Tools -->
<svg fill="#000000" height="800px" width="800px" version="1.1" id="Layer_1" xmlns="http://www.w3.org/2000/svg" xmlns:xlink="http://www.w3.org/1999/xlink" 
	 viewBox="0 0 472.714 472.714" xml:space="preserve">
<g>
	<g>
		<path d="M319.552,166.413L167.084,318.88c42.51,35.442,105.978,33.273,145.859-6.609
			C352.824,272.39,354.995,208.922,319.552,166.413z"/>
	</g>
</g>
<g>
	<g>
		<path d="M471.483,107.913l-0.788-6.694l-6.498-1.673C313.058,59.963,250.732,8.665,244.135,2.954
			c-4.529-3.938-11.028-3.938-15.557,0c-6.597,5.711-68.923,57.009-220.062,96.592l-6.498,1.673l-0.788,6.694
			c-0.295,2.658-27.963,265.355,231.68,363.424l3.446,1.377l3.446-1.377C499.446,373.268,471.779,110.571,471.483,107.913z
			 M326.867,326.194c-24.952,24.952-57.731,37.433-90.51,37.433c-32.779,0-65.558-12.481-90.51-37.433
			c-49.903-49.904-49.903-131.115,0-181.02c49.904-49.903,131.115-49.903,181.02,0C376.77,195.079,376.77,276.29,326.867,326.194z"
			/>
	</g>
</g>
<g>
	<g>
		<path d="M236.357,127.435c-27.741,0-55.471,10.548-76.586,31.663c-39.881,39.881-42.051,103.35-6.609,145.858L305.627,152.49
			C285.625,135.822,261.001,127.435,236.357,127.435z"/>
	</g>
</g>
</svg>