<?xml version="1.0" encoding="utf-8"?><!-- Uploaded to: SVG Repo, www.svgrepo.com, Generator: SVG Repo Mixer Tools -->
<svg fill="#000000" width="800px" height="800px" viewBox="0 0 512 512" id="_49_Windows" data-name="49 Windows" xmlns="http://www.w3.org/2000/svg">
  <path id="Path_62" data-name="Path 62" d="M480,384H448V64H128V32A31.981,31.981,0,0,1,160,0H480a31.981,31.981,0,0,1,32,32V352A31.981,31.981,0,0,1,480,384ZM416,128V480a31.981,31.981,0,0,1-32,32H32A31.981,31.981,0,0,1,0,480V128A31.981,31.981,0,0,1,32,96H384A31.981,31.981,0,0,1,416,128Zm-64,32H64v96H352Zm0,160H64V448H352ZM128,224H96V192h32Zm64,0H160V192h32Zm128,0H224V192h96Z" fill-rule="evenodd"/>
</svg>